<svg width="23" height="24" viewBox="0 0 23 24" fill="none" xmlns="http://www.w3.org/2000/svg">
<g clip-path="url(#clip0_32_1123)">
<path d="M20.125 14.25C20.125 15.0456 19.8221 15.8087 19.2829 16.3713C18.7438 16.9339 18.0125 17.25 17.25 17.25C16.4875 17.25 15.7562 16.9339 15.2171 16.3713C14.6779 15.8087 14.375 15.0456 14.375 14.25C14.375 13.4544 14.6779 12.6913 15.2171 12.1287C15.7562 11.5661 16.4875 11.25 17.25 11.25C18.0125 11.25 18.7438 11.5661 19.2829 12.1287C19.8221 12.6913 20.125 13.4544 20.125 14.25ZM11.5 22.8C11.5 24 12.65 24 12.65 24H21.85C21.85 24 23 24 23 22.8C23 21.6 21.85 18 17.25 18C12.65 18 11.5 21.6 11.5 22.8Z" fill="white"/>
<path d="M2.875 3C2.1125 3 1.38124 3.31607 0.842068 3.87868C0.302901 4.44129 0 5.20435 0 6L0 18C0 18.7956 0.302901 19.5587 0.842068 20.1213C1.38124 20.6839 2.1125 21 2.875 21H10.4118C10.5872 20.511 10.8359 19.998 11.1679 19.5H2.875C2.49375 19.5 2.12812 19.342 1.85853 19.0607C1.58895 18.7794 1.4375 18.3978 1.4375 18V6C1.4375 5.60218 1.58895 5.22064 1.85853 4.93934C2.12812 4.65804 2.49375 4.5 2.875 4.5H20.125C20.5062 4.5 20.8719 4.65804 21.1415 4.93934C21.411 5.22064 21.5625 5.60218 21.5625 6V17.715C22.0699 18.06 22.5055 18.459 22.8706 18.8895C22.9554 18.609 23 18.3105 23 18V6C23 5.20435 22.6971 4.44129 22.1579 3.87868C21.6188 3.31607 20.8875 3 20.125 3H2.875Z" fill="white"/>
</g>
<defs>
<clipPath id="clip0_32_1123">
<rect width="23" height="24" fill="white"/>
</clipPath>
</defs>
</svg>
