<?xml version="1.0" standalone="no"?>
<!DOCTYPE svg PUBLIC "-//W3C//DTD SVG 20010904//EN"
 "http://www.w3.org/TR/2001/REC-SVG-20010904/DTD/svg10.dtd">
<svg version="1.0" xmlns="http://www.w3.org/2000/svg"
 width="88.000000pt" height="94.000000pt" viewBox="0 0 88.000000 94.000000"
 preserveAspectRatio="xMidYMid meet">

<g transform="translate(0.000000,94.000000) scale(0.100000,-0.100000)"
fill="#000000" stroke="none">
<path d="M195 734 c-80 -41 -109 -136 -62 -204 32 -48 69 -72 120 -77 45 -5
45 -5 50 -50 5 -51 29 -88 77 -121 77 -52 193 -6 220 87 7 27 6 37 -10 53 -21
23 -24 20 -34 -42 -4 -25 -16 -42 -39 -57 -37 -26 -59 -28 -105 -12 -45 15
-62 48 -62 119 l0 60 -47 1 c-76 0 -115 18 -137 62 -16 33 -17 45 -7 77 17 56
55 80 128 80 47 0 64 4 78 20 18 20 17 20 -61 20 -52 0 -89 -5 -109 -16z"/>
<path d="M465 720 c-4 -6 11 -10 37 -9 36 1 39 2 18 9 -36 11 -48 11 -55 0z"/>
<path d="M10 145 c0 -53 1 -55 28 -55 41 0 50 11 49 55 -1 45 -10 55 -49 55
-27 0 -28 -2 -28 -55z m55 26 c7 -12 -12 -24 -25 -16 -11 7 -4 25 10 25 5 0
11 -4 15 -9z m0 -41 c3 -6 -1 -13 -10 -16 -19 -8 -30 0 -20 15 8 14 22 14 30
1z"/>
<path d="M110 145 c0 -30 5 -55 10 -55 6 0 10 25 10 55 0 30 -4 55 -10 55 -5
0 -10 -25 -10 -55z"/>
<path d="M370 146 l0 -54 33 1 c30 2 32 5 32 37 0 29 -4 36 -22 38 -13 2 -23
10 -23 18 0 8 -4 14 -10 14 -5 0 -10 -24 -10 -54z m48 -13 c-5 -25 -28 -28
-28 -4 0 12 6 21 16 21 9 0 14 -7 12 -17z"/>
<path d="M663 172 c-29 -3 -31 -6 -35 -48 -4 -51 8 -67 44 -62 32 4 31 40 -2
49 -24 7 -24 7 -2 8 23 1 36 20 30 43 -2 8 -15 12 -35 10z m8 -25 c-1 -12 -15
-9 -19 4 -3 6 1 10 8 8 6 -3 11 -8 11 -12z m6 -63 c-3 -3 -12 -4 -19 -1 -8 3
-5 6 6 6 11 1 17 -2 13 -5z"/>
<path d="M150 159 c0 -6 7 -9 15 -6 8 4 17 2 20 -3 3 -5 -5 -10 -17 -12 -15
-2 -23 -10 -23 -23 0 -16 7 -20 33 -22 37 -2 48 13 38 52 -5 20 -13 25 -36 25
-17 0 -30 -5 -30 -11z m40 -39 c0 -5 -4 -10 -10 -10 -5 0 -10 5 -10 10 0 6 5
10 10 10 6 0 10 -4 10 -10z"/>
<path d="M230 130 c0 -22 5 -40 10 -40 6 0 10 14 10 30 0 20 5 30 15 30 10 0
15 -10 15 -30 0 -16 5 -30 10 -30 6 0 10 14 10 30 0 20 5 30 15 30 10 0 15
-10 15 -30 0 -16 5 -30 10 -30 6 0 10 18 10 39 l0 39 -60 1 -60 1 0 -40z"/>
<path d="M460 159 c0 -6 7 -9 15 -6 8 4 17 2 20 -3 3 -5 -5 -10 -17 -12 -15
-2 -23 -10 -23 -23 0 -16 7 -20 33 -22 37 -2 48 13 38 52 -5 20 -13 25 -36 25
-17 0 -30 -5 -30 -11z m40 -39 c0 -5 -4 -10 -10 -10 -5 0 -10 5 -10 10 0 6 5
10 10 10 6 0 10 -4 10 -10z"/>
<path d="M540 130 c0 -22 5 -40 10 -40 6 0 10 14 10 30 0 20 5 30 15 30 10 0
15 -10 15 -30 0 -31 16 -41 26 -15 4 8 3 26 0 40 -5 21 -12 25 -41 25 -34 0
-35 -1 -35 -40z"/>
<path d="M714 159 c-5 -9 -2 -10 10 -6 10 4 23 4 29 0 7 -4 2 -9 -13 -13 -16
-4 -25 -13 -25 -25 0 -16 7 -20 33 -22 32 -1 33 0 30 35 -3 32 -7 37 -30 40
-14 2 -30 -2 -34 -9z m46 -39 c0 -5 -7 -10 -16 -10 -8 0 -12 5 -9 10 3 6 10
10 16 10 5 0 9 -4 9 -10z"/>
<path d="M800 128 c0 -21 5 -38 10 -38 6 0 10 14 10 30 0 20 5 30 15 30 10 0
15 -10 15 -30 0 -16 5 -30 10 -30 6 0 10 18 10 40 0 39 -1 39 -35 38 -34 -1
-35 -3 -35 -40z"/>
</g>
</svg>
