<svg width="89" height="32" viewBox="0 0 89 32" fill="none" xmlns="http://www.w3.org/2000/svg">
<path d="M9.88 25.34C8.88267 25.34 7.88533 25.2607 6.888 25.102C5.89067 24.966 4.95 24.7507 4.066 24.456C3.182 24.1387 2.38867 23.7533 1.686 23.3C1.278 23.028 0.994667 22.6993 0.836 22.314C0.677333 21.9287 0.620667 21.5547 0.666 21.192C0.734 20.8067 0.881333 20.478 1.108 20.206C1.35733 19.9113 1.66333 19.73 2.026 19.662C2.38867 19.594 2.78533 19.696 3.216 19.968C4.21333 20.5573 5.26733 20.988 6.378 21.26C7.48867 21.532 8.656 21.668 9.88 21.668C11.6707 21.668 12.974 21.3733 13.79 20.784C14.606 20.172 15.014 19.39 15.014 18.438C15.014 17.6447 14.7193 17.0213 14.13 16.568C13.5633 16.1147 12.5773 15.7407 11.172 15.446L7.432 14.664C5.27867 14.2107 3.66933 13.4513 2.604 12.386C1.56133 11.298 1.04 9.87 1.04 8.102C1.04 6.99133 1.26667 5.98267 1.72 5.076C2.17333 4.16933 2.808 3.38733 3.624 2.73C4.46267 2.07267 5.44867 1.574 6.582 1.234C7.738 0.871332 9.00733 0.689999 10.39 0.689999C11.75 0.689999 13.042 0.859999 14.266 1.2C15.49 1.54 16.5893 2.03867 17.564 2.696C17.9267 2.94533 18.1647 3.25133 18.278 3.614C18.414 3.97667 18.448 4.33933 18.38 4.702C18.312 5.042 18.1533 5.33667 17.904 5.586C17.6547 5.83533 17.3373 5.98267 16.952 6.028C16.5893 6.07333 16.17 5.96 15.694 5.688C14.8553 5.212 14.0053 4.872 13.144 4.668C12.2827 4.464 11.3533 4.362 10.356 4.362C9.31333 4.362 8.418 4.50933 7.67 4.804C6.922 5.09867 6.344 5.518 5.936 6.062C5.55067 6.58333 5.358 7.20667 5.358 7.932C5.358 8.748 5.63 9.40533 6.174 9.904C6.718 10.38 7.64733 10.754 8.962 11.026L12.668 11.808C14.912 12.284 16.578 13.032 17.666 14.052C18.7767 15.072 19.332 16.432 19.332 18.132C19.332 19.22 19.1053 20.206 18.652 21.09C18.2213 21.974 17.5867 22.7333 16.748 23.368C15.932 24.0027 14.946 24.49 13.79 24.83C12.634 25.17 11.3307 25.34 9.88 25.34ZM24.7672 25.238C24.0872 25.238 23.5659 25.034 23.2032 24.626C22.8406 24.218 22.6592 23.6513 22.6592 22.926V10.448C22.6592 9.7 22.8406 9.13333 23.2032 8.748C23.5659 8.34 24.0872 8.136 24.7672 8.136C25.4472 8.136 25.9686 8.34 26.3312 8.748C26.7166 9.13333 26.9092 9.7 26.9092 10.448V22.926C26.9092 23.6513 26.7279 24.218 26.3652 24.626C26.0026 25.034 25.4699 25.238 24.7672 25.238ZM24.7672 4.974C23.9739 4.974 23.3506 4.78133 22.8972 4.396C22.4666 3.988 22.2512 3.43267 22.2512 2.73C22.2512 2.00467 22.4666 1.44933 22.8972 1.064C23.3506 0.678666 23.9739 0.485999 24.7672 0.485999C25.5832 0.485999 26.2066 0.678666 26.6372 1.064C27.0679 1.44933 27.2832 2.00467 27.2832 2.73C27.2832 3.43267 27.0679 3.988 26.6372 4.396C26.2066 4.78133 25.5832 4.974 24.7672 4.974ZM33.9092 25.272C33.2066 25.272 32.6626 25.0793 32.2772 24.694C31.9146 24.286 31.7332 23.7307 31.7332 23.028V2.968C31.7332 2.24267 31.9146 1.69867 32.2772 1.336C32.6626 0.950665 33.2066 0.757998 33.9092 0.757998C34.6119 0.757998 35.1446 0.950665 35.5072 1.336C35.8926 1.69867 36.0852 2.24267 36.0852 2.968V11.638H36.1532L45.9112 1.846C46.2739 1.48333 46.6366 1.21133 46.9992 1.03C47.3619 0.848665 47.7699 0.757998 48.2232 0.757998C48.8806 0.757998 49.3452 0.927999 49.6172 1.268C49.9119 1.608 50.0252 2.00467 49.9572 2.458C49.9119 2.91133 49.6966 3.33067 49.3112 3.716L39.3832 13.542L39.4172 11.57L49.7872 22.11C50.2632 22.5633 50.5126 23.0393 50.5352 23.538C50.5579 24.0367 50.3992 24.456 50.0592 24.796C49.7419 25.1133 49.2659 25.272 48.6312 25.272C48.0872 25.272 47.6452 25.1587 47.3052 24.932C46.9879 24.7053 46.6139 24.3767 46.1832 23.946L36.1532 13.916H36.0852V23.028C36.0852 23.7307 35.9039 24.286 35.5412 24.694C35.1786 25.0793 34.6346 25.272 33.9092 25.272ZM61.6989 25.34C59.8176 25.34 58.1969 24.9887 56.8369 24.286C55.4769 23.5833 54.4229 22.586 53.6749 21.294C52.9496 20.002 52.5869 18.472 52.5869 16.704C52.5869 14.9813 52.9383 13.474 53.6409 12.182C54.3663 10.89 55.3523 9.88133 56.5989 9.156C57.8683 8.408 59.3076 8.034 60.9169 8.034C62.0956 8.034 63.1496 8.22667 64.0789 8.612C65.0309 8.99733 65.8356 9.55267 66.4929 10.278C67.1729 11.0033 67.6829 11.8873 68.0229 12.93C68.3856 13.95 68.5669 15.106 68.5669 16.398C68.5669 16.806 68.4196 17.1233 68.1249 17.35C67.8529 17.554 67.4563 17.656 66.9349 17.656H56.0209V15.208H65.5749L65.0309 15.718C65.0309 14.6753 64.8723 13.8027 64.5549 13.1C64.2603 12.3973 63.8183 11.8647 63.2289 11.502C62.6623 11.1167 61.9483 10.924 61.0869 10.924C60.1349 10.924 59.3189 11.1507 58.6389 11.604C57.9816 12.0347 57.4716 12.658 57.1089 13.474C56.7689 14.2673 56.5989 15.2193 56.5989 16.33V16.568C56.5989 18.4267 57.0296 19.8207 57.8909 20.75C58.7749 21.6567 60.0669 22.11 61.7669 22.11C62.3563 22.11 63.0136 22.042 63.7389 21.906C64.4869 21.7473 65.1896 21.4867 65.8469 21.124C66.3229 20.852 66.7423 20.7387 67.1049 20.784C67.4676 20.8067 67.7509 20.9313 67.9549 21.158C68.1816 21.3847 68.3176 21.668 68.3629 22.008C68.4083 22.3253 68.3403 22.654 68.1589 22.994C68.0003 23.334 67.7169 23.6287 67.3089 23.878C66.5156 24.3767 65.5976 24.7507 64.5549 25C63.5349 25.2267 62.5829 25.34 61.6989 25.34ZM74.0407 31.392C73.3607 31.392 72.8393 31.2107 72.4767 30.848C72.114 30.4853 71.9327 29.9527 71.9327 29.25V10.244C71.9327 9.54133 72.114 9.00867 72.4767 8.646C72.8393 8.28333 73.3493 8.102 74.0067 8.102C74.6867 8.102 75.208 8.28333 75.5707 8.646C75.9333 9.00867 76.1147 9.54133 76.1147 10.244V12.896L75.7407 11.876C76.0807 10.72 76.772 9.79067 77.8147 9.088C78.88 8.38533 80.1153 8.034 81.5207 8.034C82.9713 8.034 84.2407 8.38533 85.3287 9.088C86.4393 9.79067 87.3007 10.788 87.9127 12.08C88.5247 13.3493 88.8307 14.8793 88.8307 16.67C88.8307 18.438 88.5247 19.9793 87.9127 21.294C87.3007 22.586 86.4507 23.5833 85.3627 24.286C84.2747 24.9887 82.994 25.34 81.5207 25.34C80.138 25.34 78.9253 25 77.8827 24.32C76.84 23.6173 76.1373 22.7107 75.7747 21.6H76.1827V29.25C76.1827 29.9527 75.99 30.4853 75.6047 30.848C75.242 31.2107 74.7207 31.392 74.0407 31.392ZM80.3307 22.11C81.1693 22.11 81.906 21.906 82.5407 21.498C83.1753 21.09 83.6627 20.4893 84.0027 19.696C84.3653 18.88 84.5467 17.8713 84.5467 16.67C84.5467 14.8567 84.1613 13.508 83.3907 12.624C82.62 11.7173 81.6 11.264 80.3307 11.264C79.492 11.264 78.7553 11.468 78.1207 11.876C77.486 12.2613 76.9873 12.862 76.6247 13.678C76.2847 14.4713 76.1147 15.4687 76.1147 16.67C76.1147 18.4607 76.5 19.8207 77.2707 20.75C78.0413 21.6567 79.0613 22.11 80.3307 22.11Z" fill="#F8F9FC"/>
</svg>
